<?xml version="1.0" encoding="UTF-8"?>
<svg xmlns="http://www.w3.org/2000/svg" viewBox="0 0 351 338" width="351" height="338">
  <polygon fill="#d6e3c5" points="302.4 55.15 209.37 55.15 133.53 0 226.55 0 302.4 55.15"/>
  <path fill="#38592a" d="m104.59,326.51l-28.28-87.37L2.02,185.12l28.28,87.37-.25-.18c0,.07,0,.14,0,.21l.36.26,74.2,53.76h0l.16.12s0,0,0,0l-.18-.13Z"/>
  <polygon fill="#5f8955" points="105.24 9.64 76.09 98.13 .72 153.22 29.88 64.74 105.24 9.64"/>
  <polygon fill="#447027" points="303.01 282.45 228.22 337.11 135.47 337.11 210.26 282.45 303.01 282.45"/>
  <polygon fill="#59894b" points="162.73 168.53 81.51 227.9 0 168.63 81.22 109.25 162.73 168.53"/>
  <polygon fill="#6b9862" points="201.52 274.11 119.41 334.12 88.19 237.68 170.29 177.67 201.52 274.11"/>
  <polygon fill="#c8e0b5" points="313.24 270.86 212.99 270.86 182.19 175.69 282.43 175.69 313.24 270.86"/>
  <polygon fill="#c3e0a9" points="321.32 81.47 350 170.08 321.5 256.56 292.82 167.98 321.32 81.47"/>
  <polygon fill="#d3e7bc" points="200.83 63.63 169.41 158.99 87.76 99.61 119.18 4.25 200.83 63.63"/>
  <polygon fill="#f0f5ed" points="312.62 67.35 281.02 163.22 181.64 163.22 213.23 67.35 312.62 67.35"/>
</svg>
