<?xml version="1.0" encoding="UTF-8"?>
<svg xmlns="http://www.w3.org/2000/svg" viewBox="0 0 680.13 566.08">
  <defs>
    <style>
      .d {
        fill: none;
      }

      .d, .e, .f, .g, .h, .i, .j, .k, .l, .m, .n, .o {
        stroke-width: 0px;
      }

      .e {
        fill: #519a5f;
      }

      .f {
        fill: #448a51;
      }

      .g {
        fill: #1a7118;
      }

      .h {
        fill: #368a45;
      }

      .i {
        fill: #1b5822;
      }

      .j {
        fill: #d1e4c5;
      }

      .k {
        fill: #c0e1b4;
      }

      .l {
        fill: #cce8bb;
      }

      .m {
        fill: #b8e1a9;
      }

      .n {
        fill: #f2b705;
      }

      .o {
        fill: #edf5ed;
      }
    </style>
  </defs>
  <g id="a" data-name="Ikon">
    <polygon class="j" points="495.76 90.42 343.25 90.42 218.92 0 371.42 0 495.76 90.42"/>
    <path class="i" d="m171.46,535.29l-46.36-143.23L3.31,303.49l46.36,143.24-.41-.3c0,.12,0,.23-.01.35l.59.42,121.64,88.13h.01l.27.19s.01,0,.01-.01l-.3-.22Z"/>
    <polygon class="f" points="172.54 15.81 124.74 160.88 1.18 251.2 48.98 106.14 172.54 15.81"/>
    <polygon class="g" points="496.76 463.05 374.15 552.67 222.1 552.67 344.71 463.05 496.76 463.05"/>
    <polygon class="h" points="266.79 276.29 133.63 373.63 0 276.45 133.16 179.11 266.79 276.29"/>
    <polygon class="e" points="330.37 449.38 195.76 547.77 144.58 389.66 279.18 291.27 330.37 449.38"/>
    <polygon class="k" points="513.54 444.05 349.19 444.05 298.68 288.03 463.03 288.03 513.54 444.05"/>
    <polygon class="m" points="526.78 135.57 573.8 280.83 527.07 422.61 480.05 277.39 526.78 135.57"/>
    <polygon class="l" points="329.24 104.32 277.73 260.65 143.87 163.31 195.38 6.97 329.24 104.32"/>
    <polygon class="o" points="512.52 110.42 460.72 267.59 297.78 267.59 349.58 110.42 512.52 110.42"/>
  </g>
  <g id="b" data-name="a">
    <g id="c" data-name="b">
      <g>
        <path class="d" d="m680.13,563.99v-272.29h-400v266.71c133.43,1.71,266.57,12,400,5.57Z"/>
        <path class="n" d="m468.27,546.71c6.57,6.57,17,6.57,23.43,0l76.57-76.57c10.57-10.43,3.14-28.43-11.71-28.43h-26.43v-83.29c0-9.14-7.57-16.71-16.71-16.71h-66.71c-9.14,0-16.71,7.57-16.71,16.71v83.29h-26.57c-14.86,0-22.29,18-11.86,28.43l76.57,76.57h.14Z"/>
      </g>
    </g>
  </g>
</svg>