<?xml version="1.0" encoding="UTF-8" standalone="no"?>
<!-- Uploaded to: SVG Repo, www.svgrepo.com, Generator: SVG Repo Mixer Tools -->

<svg
   xmlns:dc="http://purl.org/dc/elements/1.1/"
   xmlns:cc="http://creativecommons.org/ns#"
   xmlns:rdf="http://www.w3.org/1999/02/22-rdf-syntax-ns#"
   xmlns:svg="http://www.w3.org/2000/svg"
   xmlns="http://www.w3.org/2000/svg"
   xmlns:sodipodi="http://sodipodi.sourceforge.net/DTD/sodipodi-0.dtd"
   xmlns:inkscape="http://www.inkscape.org/namespaces/inkscape"
   fill="#000000"
   width="800px"
   height="800px"
   viewBox="0 0 24 24"
   version="1.1"
   id="svg4"
   sodipodi:docname="server-connection-svgrepo-com.svg"
   inkscape:version="0.92.5 (2060ec1f9f, 2020-04-08)">
  <metadata
     id="metadata10">
    <rdf:RDF>
      <cc:Work
         rdf:about="">
        <dc:format>image/svg+xml</dc:format>
        <dc:type
           rdf:resource="http://purl.org/dc/dcmitype/StillImage" />
        <dc:title></dc:title>
      </cc:Work>
    </rdf:RDF>
  </metadata>
  <defs
     id="defs8" />
  <sodipodi:namedview
     pagecolor="#ffffff"
     bordercolor="#666666"
     borderopacity="1"
     objecttolerance="10"
     gridtolerance="10"
     guidetolerance="10"
     inkscape:pageopacity="0"
     inkscape:pageshadow="2"
     inkscape:window-width="1920"
     inkscape:window-height="1011"
     id="namedview6"
     showgrid="false"
     inkscape:zoom="0.295"
     inkscape:cx="400"
     inkscape:cy="400"
     inkscape:window-x="0"
     inkscape:window-y="0"
     inkscape:window-maximized="1"
     inkscape:current-layer="svg4" />
  <path
     d="M11,13a1,1,0,1,0,1,1A1,1,0,0,0,11,13ZM7,13a1,1,0,1,0,1,1A1,1,0,0,0,7,13ZM22,4a3,3,0,0,0-3-3H5A3,3,0,0,0,2,4V8a3,3,0,0,0,.78,2A3,3,0,0,0,2,12v4a3,3,0,0,0,3,3h6v2H3a1,1,0,0,0,0,2H21a1,1,0,0,0,0-2H13V19h6a3,3,0,0,0,3-3V12a3,3,0,0,0-.78-2A3,3,0,0,0,22,8ZM20,16a1,1,0,0,1-1,1H5a1,1,0,0,1-1-1V12a1,1,0,0,1,1-1H19a1,1,0,0,1,1,1Zm0-8a1,1,0,0,1-1,1H5A1,1,0,0,1,4,8V4A1,1,0,0,1,5,3H19a1,1,0,0,1,1,1ZM11,5a1,1,0,1,0,1,1A1,1,0,0,0,11,5ZM7,5A1,1,0,1,0,8,6,1,1,0,0,0,7,5Z"
     id="path2"
     style="fill:#51852e;fill-opacity:1" />
</svg>
