<?xml version="1.0" encoding="UTF-8" standalone="no"?>
<!-- Uploaded to: SVG Repo, www.svgrepo.com, Generator: SVG Repo Mixer Tools -->

<svg
   xmlns:dc="http://purl.org/dc/elements/1.1/"
   xmlns:cc="http://creativecommons.org/ns#"
   xmlns:rdf="http://www.w3.org/1999/02/22-rdf-syntax-ns#"
   xmlns:svg="http://www.w3.org/2000/svg"
   xmlns="http://www.w3.org/2000/svg"
   xmlns:sodipodi="http://sodipodi.sourceforge.net/DTD/sodipodi-0.dtd"
   xmlns:inkscape="http://www.inkscape.org/namespaces/inkscape"
   width="800px"
   height="800px"
   viewBox="0 -0.5 21 21"
   version="1.1"
   id="svg12"
   sodipodi:docname="search.svg"
   inkscape:version="0.92.5 (2060ec1f9f, 2020-04-08)">
  <metadata
     id="metadata16">
    <rdf:RDF>
      <cc:Work
         rdf:about="">
        <dc:format>image/svg+xml</dc:format>
        <dc:type
           rdf:resource="http://purl.org/dc/dcmitype/StillImage" />
      </cc:Work>
    </rdf:RDF>
  </metadata>
  <sodipodi:namedview
     pagecolor="#ffffff"
     bordercolor="#666666"
     borderopacity="1"
     objecttolerance="10"
     gridtolerance="10"
     guidetolerance="10"
     inkscape:pageopacity="0"
     inkscape:pageshadow="2"
     inkscape:window-width="808"
     inkscape:window-height="480"
     id="namedview14"
     showgrid="false"
     inkscape:zoom="0.295"
     inkscape:cx="400"
     inkscape:cy="400"
     inkscape:window-x="590"
     inkscape:window-y="110"
     inkscape:window-maximized="0"
     inkscape:current-layer="svg12" />
  <title
     id="title2">search_left [#1506]</title>
  <desc
     id="desc4">Created with Sketch.</desc>
  <defs
     id="defs6" />
  <g
     id="Page-1"
     stroke="none"
     stroke-width="1"
     fill="none"
     fill-rule="evenodd"
     style="fill:#ffffff;fill-opacity:1">
    <g
       id="Dribbble-Light-Preview"
       transform="translate(-219.000000, -280.000000)"
       fill="#000000"
       style="fill:#ffffff;fill-opacity:1">
      <g
         id="icons"
         transform="translate(56.000000, 160.000000)"
         style="fill:#ffffff;fill-opacity:1">
        <path
           d="M184,138.586 L182.5153,140 L176.57545,134.343 L178.06015,132.929 L184,138.586 Z M170.35,132 C167.45515,132 165.1,129.757 165.1,127 C165.1,124.243 167.45515,122 170.35,122 C173.24485,122 175.6,124.243 175.6,127 C175.6,129.757 173.24485,132 170.35,132 L170.35,132 Z M170.35,120 C166.2907,120 163,123.134 163,127 C163,130.866 166.2907,134 170.35,134 C174.4093,134 177.7,130.866 177.7,127 C177.7,123.134 174.4093,120 170.35,120 L170.35,120 Z"
           id="search_left-[#1506]"
           style="fill:#ffffff;fill-opacity:1" />
      </g>
    </g>
  </g>
</svg>
