<?xml version="1.0" encoding="UTF-8" standalone="no"?>
<!-- Uploaded to: SVG Repo, www.svgrepo.com, Generator: SVG Repo Mixer Tools -->

<svg
   xmlns:dc="http://purl.org/dc/elements/1.1/"
   xmlns:cc="http://creativecommons.org/ns#"
   xmlns:rdf="http://www.w3.org/1999/02/22-rdf-syntax-ns#"
   xmlns:svg="http://www.w3.org/2000/svg"
   xmlns="http://www.w3.org/2000/svg"
   xmlns:sodipodi="http://sodipodi.sourceforge.net/DTD/sodipodi-0.dtd"
   xmlns:inkscape="http://www.inkscape.org/namespaces/inkscape"
   fill="#000000"
   width="800px"
   height="800px"
   viewBox="0 0 36 36"
   version="1.1"
   preserveAspectRatio="xMidYMid meet"
   id="svg16"
   sodipodi:docname="build-images-dark.svg"
   inkscape:version="0.92.5 (2060ec1f9f, 2020-04-08)">
  <metadata
     id="metadata22">
    <rdf:RDF>
      <cc:Work
         rdf:about="">
        <dc:format>image/svg+xml</dc:format>
        <dc:type
           rdf:resource="http://purl.org/dc/dcmitype/StillImage" />
      </cc:Work>
    </rdf:RDF>
  </metadata>
  <defs
     id="defs20" />
  <sodipodi:namedview
     pagecolor="#ffffff"
     bordercolor="#666666"
     borderopacity="1"
     objecttolerance="10"
     gridtolerance="10"
     guidetolerance="10"
     inkscape:pageopacity="0"
     inkscape:pageshadow="2"
     inkscape:window-width="1920"
     inkscape:window-height="1011"
     id="namedview18"
     showgrid="false"
     inkscape:zoom="0.295"
     inkscape:cx="-477.77258"
     inkscape:cy="447.93944"
     inkscape:window-x="0"
     inkscape:window-y="0"
     inkscape:window-maximized="1"
     inkscape:current-layer="svg16" />
  <title
     id="title2">container-volume-solid</title>
  <path
     d="M32,18H18a2,2,0,0,0-2,2V32a2,2,0,0,0,2,2H32a2,2,0,0,0,2-2V20A2,2,0,0,0,32,18ZM18,32V20H32V32Z"
     class="clr-i-solid clr-i-solid-path-1"
     id="path4"
     style="fill:#c8e0b5;fill-opacity:1" />
  <path
     d="M21,21.7a.7.7,0,0,0-.7.7v7.49a.7.7,0,0,0,1.4,0V22.4A.7.7,0,0,0,21,21.7Z"
     class="clr-i-solid clr-i-solid-path-2"
     id="path6"
     style="fill:#f0f5ed;fill-opacity:1" />
  <path
     d="M25,21.82a.7.7,0,0,0-.7.7V30a.7.7,0,1,0,1.4,0V22.52A.7.7,0,0,0,25,21.82Z"
     class="clr-i-solid clr-i-solid-path-3"
     id="path8"
     style="fill:#f0f5ed;fill-opacity:1" />
  <path
     d="M29,21.7a.7.7,0,0,0-.7.7v7.49a.7.7,0,1,0,1.4,0V22.4A.7.7,0,0,0,29,21.7Z"
     class="clr-i-solid clr-i-solid-path-4"
     id="path10"
     style="fill:#f0f5ed;fill-opacity:1" />
  <path
     d="M18,16H28V8.12c0-1.68-5.38-3-12-3S4,6.44,4,8.12V28c0,1.5,4.33,2.75,10,3V25.22a29.17,29.17,0,0,1-8-1.29V22.44l.24.1A26.63,26.63,0,0,0,14,23.82V20a4,4,0,0,1,.29-1.47A29.19,29.19,0,0,1,6,17.23V15.75l.24.09a29,29,0,0,0,9,1.32h0A4,4,0,0,1,18,16ZM6,10.54V9.05l.24.09A30.12,30.12,0,0,0,16,10.47,28.33,28.33,0,0,0,26,9.05v1.5a32.53,32.53,0,0,1-10,1.32A32.44,32.44,0,0,1,6,10.54Z"
     class="clr-i-solid clr-i-solid-path-5"
     id="path12"
     style="stroke:none;stroke-opacity:1;fill:#c8e0b5;fill-opacity:1" />
  <rect
     x="0"
     y="0"
     width="36"
     height="36"
     fill-opacity="0"
     id="rect14" />
</svg>
