<?xml version="1.0" encoding="UTF-8" standalone="no"?>
<!-- Uploaded to: SVG Repo, www.svgrepo.com, Generator: SVG Repo Mixer Tools -->

<svg
   xmlns:dc="http://purl.org/dc/elements/1.1/"
   xmlns:cc="http://creativecommons.org/ns#"
   xmlns:rdf="http://www.w3.org/1999/02/22-rdf-syntax-ns#"
   xmlns:svg="http://www.w3.org/2000/svg"
   xmlns="http://www.w3.org/2000/svg"
   xmlns:sodipodi="http://sodipodi.sourceforge.net/DTD/sodipodi-0.dtd"
   xmlns:inkscape="http://www.inkscape.org/namespaces/inkscape"
   width="800px"
   height="800px"
   viewBox="0 0 15 15"
   version="1.1"
   id="rocket"
   sodipodi:docname="rocket-dark.svg"
   inkscape:version="0.92.5 (2060ec1f9f, 2020-04-08)">
  <metadata
     id="metadata8">
    <rdf:RDF>
      <cc:Work
         rdf:about="">
        <dc:format>image/svg+xml</dc:format>
        <dc:type
           rdf:resource="http://purl.org/dc/dcmitype/StillImage" />
      </cc:Work>
    </rdf:RDF>
  </metadata>
  <defs
     id="defs6" />
  <sodipodi:namedview
     pagecolor="#ffffff"
     bordercolor="#666666"
     borderopacity="1"
     objecttolerance="10"
     gridtolerance="10"
     guidetolerance="10"
     inkscape:pageopacity="0"
     inkscape:pageshadow="2"
     inkscape:window-width="2560"
     inkscape:window-height="1371"
     id="namedview4"
     showgrid="false"
     inkscape:zoom="0.295"
     inkscape:cx="400"
     inkscape:cy="400"
     inkscape:window-x="0"
     inkscape:window-y="0"
     inkscape:window-maximized="1"
     inkscape:current-layer="rocket" />
  <path
     id="path7143"
     d="M12.5547,1c-2.1441,0-5.0211,1.471-6.9531,4H4
	C2.8427,5,2.1794,5.8638,1.7227,6.7773L1.1113,8h1.4434H4l1.5,1.5L7,11v1.4453v1.4434l1.2227-0.6113
	C9.1362,12.8206,10,12.1573,10,11V9.3984c2.529-1.932,4-4.809,4-6.9531V1H12.5547z M10,4c0.5523,0,1,0.4477,1,1l0,0
	c0,0.5523-0.4477,1-1,1l0,0C9.4477,6,9,5.5523,9,5v0C9,4.4477,9.4477,4,10,4L10,4z M3.5,10L3,10.5C2.2778,11.2222,2,13,2,13
	s1.698-0.198,2.5-1L5,11.5L3.5,10z"
     style="fill:#c8e0b5;fill-opacity:1" />
</svg>
