<?xml version="1.0" encoding="UTF-8" standalone="no"?>
<!-- Uploaded to: SVG Repo, www.svgrepo.com, Generator: SVG Repo Mixer Tools -->

<svg
   xmlns:dc="http://purl.org/dc/elements/1.1/"
   xmlns:cc="http://creativecommons.org/ns#"
   xmlns:rdf="http://www.w3.org/1999/02/22-rdf-syntax-ns#"
   xmlns:svg="http://www.w3.org/2000/svg"
   xmlns="http://www.w3.org/2000/svg"
   xmlns:sodipodi="http://sodipodi.sourceforge.net/DTD/sodipodi-0.dtd"
   xmlns:inkscape="http://www.inkscape.org/namespaces/inkscape"
   fill="#000000"
   width="800px"
   height="800px"
   viewBox="0 0 256 256"
   id="Flat"
   version="1.1"
   sodipodi:docname="kleened-api.svg"
   inkscape:version="0.92.5 (2060ec1f9f, 2020-04-08)">
  <metadata
     id="metadata9">
    <rdf:RDF>
      <cc:Work
         rdf:about="">
        <dc:format>image/svg+xml</dc:format>
        <dc:type
           rdf:resource="http://purl.org/dc/dcmitype/StillImage" />
      </cc:Work>
    </rdf:RDF>
  </metadata>
  <defs
     id="defs7" />
  <sodipodi:namedview
     pagecolor="#ffffff"
     bordercolor="#666666"
     borderopacity="1"
     objecttolerance="10"
     gridtolerance="10"
     guidetolerance="10"
     inkscape:pageopacity="0"
     inkscape:pageshadow="2"
     inkscape:window-width="1920"
     inkscape:window-height="1011"
     id="namedview5"
     showgrid="false"
     inkscape:zoom="0.295"
     inkscape:cx="400"
     inkscape:cy="400"
     inkscape:window-x="0"
     inkscape:window-y="0"
     inkscape:window-maximized="1"
     inkscape:current-layer="Flat" />
  <path
     d="M54.79785,119.48535A34.95033,34.95033,0,0,1,49.05078,128a34.95033,34.95033,0,0,1,5.74707,8.51465C60,147.24414,60,159.8291,60,172c0,25.93652,1.84424,32,20,32a12,12,0,0,1,0,24c-19.14453,0-32.19775-6.90234-38.79785-20.51465C36,196.75586,36,184.1709,36,172c0-25.93652-1.84424-32-20-32a12,12,0,0,1,0-24c18.15576,0,20-6.06348,20-32,0-12.1709,0-24.75586,5.20215-35.48535C47.80225,34.90234,60.85547,28,80,28a12,12,0,0,1,0,24c-18.15576,0-20,6.06348-20,32C60,96.1709,60,108.75586,54.79785,119.48535ZM240,116c-18.15576,0-20-6.06348-20-32,0-12.1709,0-24.75586-5.20215-35.48535C208.19775,34.90234,195.14453,28,176,28a12,12,0,0,0,0,24c18.15576,0,20,6.06348,20,32,0,12.1709,0,24.75586,5.20215,35.48535A34.95033,34.95033,0,0,0,206.94922,128a34.95033,34.95033,0,0,0-5.74707,8.51465C196,147.24414,196,159.8291,196,172c0,25.93652-1.84424,32-20,32a12,12,0,0,0,0,24c19.14453,0,32.19775-6.90234,38.79785-20.51465C220,196.75586,220,184.1709,220,172c0-25.93652,1.84424-32,20-32a12,12,0,0,0,0-24Z"
     id="path2"
     style="fill:#51852e;fill-opacity:1" />
</svg>
